<?xml version="1.0" encoding="utf-8"?>
<!-- Generator: Adobe Illustrator 15.1.0, SVG Export Plug-In . SVG Version: 6.00 Build 0)  -->
<!DOCTYPE svg PUBLIC "-//W3C//DTD SVG 1.1//EN" "http://www.w3.org/Graphics/SVG/1.1/DTD/svg11.dtd">
<svg version="1.1" xmlns="http://www.w3.org/2000/svg" xmlns:xlink="http://www.w3.org/1999/xlink" x="0px" y="0px"
	 width="841.89px" height="595.28px" viewBox="0 0 841.89 595.28" enable-background="new 0 0 841.89 595.28" xml:space="preserve">
<g id="Calque_1">
	<path fill="#5B3C2E" d="M371.692,335.006c0,0,57.575-6.34,71.702-2.007s34.54-11.334,34.54-11.334c19.333-14,8-30.666,3.333-36.666
		c8.333-9,11-30.333,9.667-32s-12.667,7-12.667,7l-25.043-106.667L332.08,181.296l-2.812,72.369c0,0-15.333-3-18.333,0
		s-2,26.333,14.333,28c-1,4.667-4.666,26.333,10.667,31.667c0,0,10.89,22.334,36.278,21.667"/>
	<polygon fill="#2B5988" points="417.268,117.343 411.268,95.676 338.602,111.676 343.268,134.343 	"/>
	<polyline fill="#18A6C7" points="343.268,134.343 338.602,135.666 343.268,153.333 425.935,132.999 421.602,116.666 
		417.268,117.343 	"/>
	<path fill="none" d="M464.602,210.666"/>
	<path fill="#E9DFCE" d="M455.935,223.882c10,57.217-50.68,66.218-52.667,66.45c-60,7-64.666-46.686-64.666-46.686v-1.312v-42.669
		l35.333-14.333l36.333-13.333c0,0,12.668-2.333,14.334-2.333s18.793,16.333,18.793,16.333l8.873,18L455.935,223.882z"/>
	<path fill="#FFFFFF" d="M359.268,257.422l80.334-11.423c0,0,7,20.147-36,32.907c-1.75,0.665-30.298,6.5-40.98-11.986
		C361.095,264.279,359.934,261.142,359.268,257.422z"/>
	<polygon fill="#2B5988" points="343.268,153.333 425.935,132.999 497.268,143.166 297.268,189.332 	"/>
	<path fill="#2B5988" d="M387.935,460.999h-37.667c0,0,12.667-12,18.833-13c0.5-3.666,0-27.333,0-27.333s19.526,0.667,24.013,0
		C393.268,425.666,386.268,454.999,387.935,460.999z"/>
	<path fill="#2B5988" d="M453.225,413.333c0,0-1.71,32.667,0,36c4.043,2.333,16.71,11.666,16.71,11.666h-32.423l-12.91-40.333
		L453.225,413.333z"/>
	<polygon fill="#E9DFCE" points="415.602,387.333 428.522,419.661 448.935,414.432 443.395,383.999 	"/>
	<polygon fill="#E9DFCE" points="375.268,392.666 371.692,420.666 393.114,420.666 402.268,389.999 	"/>
	<path fill="#8F7165" d="M286.601,263.149c0,0,31.667,190.848,34.667,193.182s9.667,0,9.667,0s-32.334-195.666-33.667-196.666
		S286.601,263.149,286.601,263.149z"/>
	<path fill="#735445" d="M278.268,243.647c0,0,1.75,19.767,4,21.685s17.25-3.792,20-5.812s-5-21.755-5-21.755L278.268,243.647z"/>
	<path fill="#18A6C7" d="M372.212,297.999c-6.855,3.64-60.278,32-60.278,32l3.667,11.106c0,0,54.056-18.273,56.611-15.439
		s0,18.334,0,18.334l71.182-11c0,0-5.865-20.668-3.371-21.334s14.328,5,15.911,7.667s-5.09,21.772-5.09,21.772l10.09,2.895
		c0,0,13.583-19.25,13.333-23s-27.488-31.25-34.244-33.083S379.068,294.359,372.212,297.999z"/>
	<ellipse fill="#E9DFCE" cx="305.476" cy="336.332" rx="12.75" ry="12"/>
	<ellipse fill="#E9DFCE" cx="455.934" cy="352.104" rx="12.75" ry="12"/>
	<polygon fill="#2D8ECD" points="372.212,343.999 359.268,394.666 464.602,383.999 443.395,332.999 	"/>
	<path fill="#E8E8E8" d="M390.943,293.552c0,0-1.342,18.279,14.991,16.947c0,0,18.11-2.309,12.444-21.272
		C408.551,290.565,390.943,293.552,390.943,293.552z"/>
	<polygon fill="#38221E" points="378.484,295.983 380.268,352.104 386.98,352.104 386.98,294.072 	"/>
	<circle fill="#E8E21B" cx="383.984" cy="353.832" r="5.5"/>
	<polygon fill="#38221E" points="423.876,288.118 426.132,342.15 432.566,342.15 432.566,287.085 423.876,288.118 	"/>
	<circle fill="#E8E21B" cx="429.35" cy="346.604" r="5.5"/>
	<path fill="none" d="M278.268,243.647"/>
	<path fill="none" d="M278.268,243.647"/>
	<path fill="#ADADAD" d="M247.097,179.564c0,0,9.171,63.185,13.226,65.112c5.002,0.684,31.445,6.872,53.9-16.572
		c-3.692-19.797-14.333-61.832-14.333-61.832s-4.332-0.141-4.396,1.858s12.059,54.837,12.059,54.837s-12.9,9.503-16.259,6.392
		s-15.887-58.881-15.887-58.881s-4.997-0.162-5.395,1.826c-0.398,1.988,12.084,59.189,12.084,59.189s-9.457,7.432-17.393,1.554
		c-2.087-7.622-12.5-56.653-12.5-56.653S248.193,176.598,247.097,179.564z"/>
	<circle cx="362.178" cy="237.765" r="5.882"/>
	<circle cx="437.512" cy="229.765" r="5.883"/>
	<path fill="#5B3C2E" d="M466.686,210.666c-38.666,3-45.751-19.667-51.084-35c-24.666,58.667-69.667,38.333-69.667,38.333
		s4.415,16.549-16.585,37.549l3.028-70.32l120.847-27.895L466.686,210.666z"/>
	<path fill="#C96755" d="M362.621,266.92c0,0,61.949-10.998,74.095-7.586c-5.087,5.744-13.525,16.225-37.07,20.362
		C399.646,279.695,371.975,285.174,362.621,266.92z"/>
	<path fill="#C96755" d="M397.268,263.149"/>
	<g opacity="0.68">
		<g>
			<path fill="#757575" d="M396.98,263.794c2.363,4.252,4.419,8.764,5.744,13.449c0.165,0.582,0.933,0.818,0.705,0.013
				c-1.354-4.784-3.462-9.414-5.875-13.755C397.191,262.847,396.613,263.133,396.98,263.794L396.98,263.794z"/>
		</g>
	</g>
	<path fill="none" stroke="#424242" stroke-miterlimit="10" d="M543.236,237.01"/>
	<path fill="none" stroke="#424242" stroke-miterlimit="10" d="M543.236,237.01"/>
</g>
<g id="Calque_3" display="none">
	<path display="inline" fill="none" stroke="#424242" stroke-miterlimit="10" d="M371.202,333.918c0,0,57.575-6.34,71.702-2.008
		c14.127,4.334,34.54-11.334,34.54-11.334c19.333-14,8-30.665,3.333-36.665c8.333-9,11-30.333,9.667-32s-12.667,7-12.667,7
		l-25.043-106.667L331.59,180.208l-2.812,72.369c0,0-15.333-3-18.333,0s-2,26.333,14.333,28c-1,4.667-4.666,26.333,10.667,31.667
		c0,0,10.89,22.334,36.278,21.666"/>
	<polygon display="inline" fill="none" stroke="#424242" stroke-miterlimit="10" points="416.777,116.255 410.777,94.588 
		338.111,110.588 342.777,133.255 	"/>
	<polyline display="inline" fill="none" stroke="#424242" stroke-miterlimit="10" points="342.777,133.255 338.111,134.578 
		342.777,152.245 425.444,131.911 421.111,115.578 416.777,116.255 	"/>
	<path display="inline" fill="none" stroke="#424242" stroke-miterlimit="10" d="M464.111,209.578"/>
	<path display="inline" fill="none" stroke="#424242" stroke-miterlimit="10" d="M455.444,222.794
		c10,57.217-50.68,66.218-52.667,66.45c-60,7-64.666-46.686-64.666-46.686v-1.312v-42.669l35.333-14.333l36.333-13.333
		c0,0,12.668-2.333,14.334-2.333s18.793,16.333,18.793,16.333l8.873,18L455.444,222.794z"/>
	<path display="inline" fill="none" stroke="#424242" stroke-miterlimit="10" d="M358.777,256.334l80.334-11.423
		c0,0,7,20.147-36,32.907c-1.75,0.665-30.298,6.5-40.98-11.986C360.605,263.191,359.443,260.054,358.777,256.334z"/>
	<polygon display="inline" fill="none" stroke="#424242" stroke-miterlimit="10" points="342.777,152.245 425.444,131.911 
		496.777,142.078 296.777,188.244 	"/>
	<path display="inline" fill="none" stroke="#424242" stroke-miterlimit="10" d="M387.444,459.91h-37.667c0,0,12.667-12,18.834-13
		c0.5-3.666,0-27.332,0-27.332s19.525,0.666,24.013,0C392.777,424.578,385.777,453.91,387.444,459.91z"/>
	<path display="inline" fill="none" stroke="#424242" stroke-miterlimit="10" d="M452.734,412.244c0,0-1.71,32.668,0,36
		c4.043,2.334,16.71,11.666,16.71,11.666h-32.423l-12.91-40.332L452.734,412.244z"/>
	<polygon display="inline" fill="none" stroke="#424242" stroke-miterlimit="10" points="415.111,386.244 428.032,418.572 
		448.444,413.344 442.904,382.91 	"/>
	<polygon display="inline" fill="none" stroke="#424242" stroke-miterlimit="10" points="374.777,391.578 371.202,419.578 
		392.624,419.578 401.777,388.91 	"/>
	<path display="inline" fill="none" stroke="#424242" stroke-miterlimit="10" d="M286.11,262.061c0,0,31.667,190.847,34.667,193.181
		s9.667,0,9.667,0s-32.334-195.665-33.667-196.665S286.11,262.061,286.11,262.061z"/>
	<path display="inline" fill="none" stroke="#424242" stroke-miterlimit="10" d="M277.777,242.559c0,0,1.75,19.767,4,21.685
		s17.25-3.792,20-5.812s-5-21.755-5-21.755L277.777,242.559z"/>
	<path display="inline" fill="none" stroke="#424242" stroke-miterlimit="10" d="M371.723,296.911
		c-6.855,3.638-60.278,31.999-60.278,31.999l3.666,11.105c0,0,54.057-18.273,56.612-15.439c2.555,2.834,0,18.334,0,18.334l71.182-11
		c0,0-5.865-20.668-3.371-21.334s14.328,5,15.911,7.668c1.583,2.666-5.09,21.771-5.09,21.771l10.09,2.895
		c0,0,13.583-19.25,13.333-23s-27.488-31.25-34.244-33.082S378.578,293.271,371.723,296.911z"/>
	<ellipse display="inline" fill="none" stroke="#424242" stroke-miterlimit="10" cx="304.985" cy="335.244" rx="12.75" ry="12"/>
	<ellipse display="inline" fill="none" stroke="#424242" stroke-miterlimit="10" cx="455.444" cy="351.016" rx="12.75" ry="12"/>
	<polygon display="inline" fill="none" stroke="#424242" stroke-miterlimit="10" points="371.723,342.91 358.777,393.578 
		464.111,382.91 442.904,331.91 	"/>
	<path display="inline" fill="none" stroke="#424242" stroke-miterlimit="10" d="M390.453,292.464c0,0-1.342,18.278,14.991,16.946
		c0,0,18.11-2.309,12.444-21.271C408.061,289.477,390.453,292.464,390.453,292.464z"/>
	<polygon display="inline" fill="none" stroke="#424242" stroke-miterlimit="10" points="377.994,294.895 379.777,351.016 
		386.49,351.016 386.49,292.984 	"/>
	<circle display="inline" fill="none" stroke="#424242" stroke-miterlimit="10" cx="383.494" cy="352.744" r="5.5"/>
	<polygon display="inline" fill="none" stroke="#424242" stroke-miterlimit="10" points="423.386,287.03 425.642,341.062 
		432.076,341.062 432.076,285.997 423.386,287.03 	"/>
	<circle display="inline" fill="none" stroke="#424242" stroke-miterlimit="10" cx="428.859" cy="345.516" r="5.5"/>
	<path display="inline" fill="none" stroke="#424242" stroke-miterlimit="10" d="M246.606,178.476c0,0,9.171,63.185,13.226,65.112
		c5.003,0.684,31.445,6.872,53.899-16.572c-3.691-19.797-14.332-61.832-14.332-61.832s-4.332-0.141-4.396,1.858
		s12.059,54.837,12.059,54.837s-12.9,9.503-16.258,6.392c-3.359-3.111-15.888-58.881-15.888-58.881s-4.997-0.162-5.396,1.826
		c-0.398,1.988,12.084,59.189,12.084,59.189s-9.457,7.432-17.393,1.554c-2.087-7.622-12.5-56.653-12.5-56.653
		S247.703,175.51,246.606,178.476z"/>
	<circle display="inline" fill="none" stroke="#424242" stroke-miterlimit="10" cx="361.688" cy="236.677" r="5.882"/>
	<circle display="inline" fill="none" stroke="#424242" stroke-miterlimit="10" cx="437.021" cy="228.677" r="5.883"/>
	<path display="inline" fill="none" stroke="#424242" stroke-miterlimit="10" d="M466.195,209.578
		c-38.666,3-45.751-19.667-51.084-35c-24.666,58.667-69.667,38.333-69.667,38.333s4.415,16.549-16.585,37.549l3.028-70.32
		l120.847-27.895L466.195,209.578z"/>
	<path display="inline" fill="none" stroke="#424242" stroke-miterlimit="10" d="M362.131,265.832c0,0,61.949-10.998,74.095-7.586
		c-5.087,5.744-13.525,16.225-37.07,20.362C399.155,278.607,371.484,284.086,362.131,265.832z"/>
	<path display="inline" fill="none" stroke="#424242" stroke-miterlimit="10" d="M396.777,262.061"/>
	<g display="inline" opacity="0.68">
		<g>
			<path fill="#424242" d="M396.49,262.706c2.363,4.252,4.419,8.764,5.744,13.449c0.165,0.582,0.933,0.818,0.705,0.013
				c-1.354-4.784-3.462-9.414-5.875-13.755C396.701,261.759,396.123,262.045,396.49,262.706L396.49,262.706z"/>
		</g>
	</g>
</g>
</svg>
