<?xml version="1.0" encoding="utf-8"?>
<!-- Generator: Adobe Illustrator 15.1.0, SVG Export Plug-In . SVG Version: 6.00 Build 0)  -->
<!DOCTYPE svg PUBLIC "-//W3C//DTD SVG 1.1//EN" "http://www.w3.org/Graphics/SVG/1.1/DTD/svg11.dtd">
<svg version="1.1" xmlns="http://www.w3.org/2000/svg" xmlns:xlink="http://www.w3.org/1999/xlink" x="0px" y="0px"
	 width="841.89px" height="595.28px" viewBox="0 0 841.89 595.28" enable-background="new 0 0 841.89 595.28" xml:space="preserve">
<g id="Calque_3" display="none">
	<path display="inline" fill="none" stroke="#424242" stroke-miterlimit="10" d="M414.016,359.588c0,0,57.576-6.34,71.703-2.006
		c14.127,4.332,34.539-11.334,34.539-11.334c19.334-14,8-30.666,3.334-36.666c8.332-9,11-30.334,9.666-32
		c-1.332-1.667-12.666,7-12.666,7l-25.043-106.667l-121.145,27.964l-2.812,72.369c0,0-15.334-3-18.334,0s-2,26.334,14.334,28
		c-1,4.666-4.666,26.334,10.666,31.666c0,0,10.891,22.334,36.279,21.668"/>
	<polygon display="inline" fill="none" stroke="#424242" stroke-miterlimit="10" points="459.592,141.925 453.592,120.259 
		380.926,136.259 385.592,158.925 	"/>
	<polyline display="inline" fill="none" stroke="#424242" stroke-miterlimit="10" points="385.592,158.925 380.926,160.248 
		385.592,177.915 468.258,157.582 463.926,141.248 459.592,141.925 	"/>
	<path display="inline" fill="none" stroke="#424242" stroke-miterlimit="10" d="M506.926,235.248"/>
	<path display="inline" fill="none" stroke="#424242" stroke-miterlimit="10" d="M498.258,248.465
		c10,57.217-50.68,66.219-52.666,66.449c-60,7.002-64.666-46.685-64.666-46.685v-1.312v-42.669l35.332-14.333l36.334-13.333
		c0,0,12.668-2.333,14.334-2.333s18.793,16.333,18.793,16.333l8.873,18L498.258,248.465z"/>
	<path display="inline" fill="none" stroke="#424242" stroke-miterlimit="10" d="M401.592,282.005l80.334-11.423
		c0,0,7,20.147-36,32.907c-1.75,0.664-30.299,6.5-40.98-11.986C403.42,288.861,402.258,285.725,401.592,282.005z"/>
	<polygon display="inline" fill="none" stroke="#424242" stroke-miterlimit="10" points="385.592,177.915 468.258,157.582 
		539.592,167.749 339.592,213.915 	"/>
	<path display="inline" fill="none" stroke="#424242" stroke-miterlimit="10" d="M430.258,485.582h-37.666c0,0,12.666-12,18.834-13
		c0.5-3.666,0-27.334,0-27.334s19.525,0.668,24.012,0C435.592,450.248,428.592,479.582,430.258,485.582z"/>
	<path display="inline" fill="none" stroke="#424242" stroke-miterlimit="10" d="M495.549,437.916c0,0-1.711,32.666,0,36
		c4.043,2.332,16.709,11.666,16.709,11.666h-32.422l-12.91-40.334L495.549,437.916z"/>
	<polygon display="inline" fill="none" stroke="#424242" stroke-miterlimit="10" points="457.926,411.916 470.846,444.244 
		491.258,439.014 485.719,408.582 	"/>
	<polygon display="inline" fill="none" stroke="#424242" stroke-miterlimit="10" points="417.592,417.248 414.016,445.248 
		435.438,445.248 444.592,414.582 	"/>
	<path display="inline" fill="none" stroke="#424242" stroke-miterlimit="10" d="M328.924,287.731
		c0,0,31.668,190.849,34.668,193.183s9.666,0,9.666,0s-32.334-195.666-33.666-196.666
		C338.258,283.248,328.924,287.731,328.924,287.731z"/>
	<path display="inline" fill="none" stroke="#424242" stroke-miterlimit="10" d="M320.592,268.229c0,0,1.75,19.767,4,21.685
		s17.25-3.791,20-5.812c2.75-2.02-5-21.754-5-21.754L320.592,268.229z"/>
	<path display="inline" fill="none" stroke="#424242" stroke-miterlimit="10" d="M414.537,322.582
		c-6.855,3.639-60.279,31.998-60.279,31.998l3.666,11.107c0,0,54.057-18.273,56.613-15.439c2.555,2.834,0,18.334,0,18.334l71.182-11
		c0,0-5.865-20.668-3.371-21.334s14.328,5,15.91,7.666c1.584,2.668-5.09,21.773-5.09,21.773l10.09,2.895c0,0,13.584-19.25,13.334-23
		s-27.488-31.252-34.244-33.084S421.393,318.941,414.537,322.582z"/>
	<ellipse display="inline" fill="none" stroke="#424242" stroke-miterlimit="10" cx="347.799" cy="360.914" rx="12.75" ry="12"/>
	<ellipse display="inline" fill="none" stroke="#424242" stroke-miterlimit="10" cx="498.258" cy="376.688" rx="12.75" ry="12"/>
	<polygon display="inline" fill="none" stroke="#424242" stroke-miterlimit="10" points="414.537,368.582 401.592,419.248 
		506.926,408.582 485.719,357.582 	"/>
	<path display="inline" fill="none" stroke="#424242" stroke-miterlimit="10" d="M433.268,318.135c0,0-1.342,18.279,14.99,16.947
		c0,0,18.111-2.309,12.445-21.273C450.875,315.146,433.268,318.135,433.268,318.135z"/>
	<polygon display="inline" fill="none" stroke="#424242" stroke-miterlimit="10" points="420.809,320.564 422.592,376.688 
		429.305,376.688 429.305,318.654 	"/>
	<circle display="inline" fill="none" stroke="#424242" stroke-miterlimit="10" cx="426.309" cy="378.414" r="5.5"/>
	<polygon display="inline" fill="none" stroke="#424242" stroke-miterlimit="10" points="466.199,312.701 468.455,366.732 
		474.891,366.732 474.891,311.668 466.199,312.701 	"/>
	<circle display="inline" fill="none" stroke="#424242" stroke-miterlimit="10" cx="471.674" cy="371.188" r="5.5"/>
	<path display="inline" fill="none" stroke="#424242" stroke-miterlimit="10" d="M289.42,204.146c0,0,9.172,63.185,13.227,65.112
		c5.002,0.684,31.445,6.872,53.898-16.572c-3.691-19.797-14.332-61.832-14.332-61.832s-4.332-0.141-4.396,1.858
		s12.059,54.837,12.059,54.837s-12.9,9.503-16.258,6.392c-3.359-3.111-15.887-58.881-15.887-58.881s-4.998-0.162-5.396,1.826
		c-0.398,1.988,12.084,59.189,12.084,59.189s-9.457,7.432-17.393,1.554c-2.086-7.622-12.5-56.653-12.5-56.653
		S290.518,201.181,289.42,204.146z"/>
	<circle display="inline" fill="none" stroke="#424242" stroke-miterlimit="10" cx="404.502" cy="262.347" r="5.883"/>
	<circle display="inline" fill="none" stroke="#424242" stroke-miterlimit="10" cx="479.836" cy="254.347" r="5.883"/>
	<path display="inline" fill="none" stroke="#424242" stroke-miterlimit="10" d="M509.01,235.248c-38.666,3-45.752-19.667-51.084-35
		c-24.666,58.667-69.668,38.333-69.668,38.333s4.416,16.549-16.584,37.549l3.027-70.32l120.848-27.895L509.01,235.248z"/>
	<path display="inline" fill="none" stroke="#424242" stroke-miterlimit="10" d="M404.945,291.502c0,0,61.949-10.998,74.094-7.586
		c-5.086,5.744-13.525,16.225-37.07,20.361C441.969,304.277,414.299,309.756,404.945,291.502z"/>
	<path display="inline" fill="none" stroke="#424242" stroke-miterlimit="10" d="M439.592,287.731"/>
	<g display="inline" opacity="0.68">
		<g>
			<path fill="#424242" d="M439.305,288.377c2.363,4.252,4.418,8.764,5.743,13.448c0.165,0.582,0.933,0.817,0.705,0.013
				c-1.354-4.783-3.462-9.413-5.874-13.756C439.516,287.43,438.938,287.715,439.305,288.377L439.305,288.377z"/>
		</g>
	</g>
</g>
<g id="Calque_1">
	<path fill="#5B3C2E" d="M411.966,359.588c0,0,57.575-6.34,71.702-2.007s34.541-11.334,34.541-11.334
		c19.332-14,8-30.666,3.332-36.666c8.334-9,11-30.333,9.668-32c-1.334-1.667-12.668,7-12.668,7l-25.043-106.667l-121.144,27.964
		l-2.812,72.369c0,0-15.333-3-18.333,0s-2,26.333,14.333,28c-1,4.666-4.666,26.333,10.667,31.666c0,0,10.89,22.334,36.278,21.667"/>
	<polygon fill="#2B5988" points="457.541,141.925 451.541,120.258 378.875,136.258 383.542,158.925 	"/>
	<polyline fill="#18A6C7" points="383.542,158.925 378.875,160.248 383.542,177.915 466.209,157.581 461.875,141.248 
		457.541,141.925 	"/>
	<path fill="none" d="M504.875,235.248"/>
	<path fill="#E9DFCE" d="M496.209,248.464c10,57.217-50.68,66.218-52.668,66.45c-60,7-64.666-46.685-64.666-46.685v-1.312v-42.669
		l35.333-14.333l36.333-13.333c0,0,12.668-2.333,14.334-2.333s18.793,16.333,18.793,16.333l8.873,18L496.209,248.464z"/>
	<path fill="#FFFFFF" d="M399.542,282.004l80.333-11.423c0,0,7,20.147-36,32.907c-1.75,0.664-30.297,6.5-40.98-11.986
		C401.369,288.861,400.208,285.724,399.542,282.004z"/>
	<polygon fill="#2B5988" points="383.542,177.915 466.209,157.581 537.541,167.748 337.542,213.914 	"/>
	<path fill="#2B5988" d="M428.209,485.581h-37.667c0,0,12.667-12,18.833-13c0.5-3.666,0-27.333,0-27.333s19.525,0.667,24.014,0
		C433.541,450.248,426.541,479.581,428.209,485.581z"/>
	<path fill="#2B5988" d="M493.498,437.915c0,0-1.709,32.667,0,36c4.043,2.333,16.711,11.666,16.711,11.666h-32.424l-12.91-40.333
		L493.498,437.915z"/>
	<polygon fill="#E9DFCE" points="455.875,411.915 468.797,444.243 489.209,439.014 483.668,408.581 	"/>
	<polygon fill="#E9DFCE" points="415.542,417.248 411.966,445.248 433.389,445.248 442.541,414.581 	"/>
	<path fill="#8F7165" d="M326.875,287.731c0,0,31.667,190.848,34.667,193.182s9.667,0,9.667,0s-32.334-195.666-33.667-196.666
		S326.875,287.731,326.875,287.731z"/>
	<path fill="#735445" d="M318.542,268.229c0,0,1.75,19.767,4,21.685s17.25-3.792,20-5.812s-5-21.755-5-21.755L318.542,268.229z"/>
	<path fill="#18A6C7" d="M412.486,322.58c-6.855,3.641-60.278,32-60.278,32l3.667,11.106c0,0,54.056-18.273,56.611-15.439
		s0,18.334,0,18.334l71.182-11c0,0-5.865-20.668-3.371-21.334s14.328,5,15.912,7.667c1.582,2.667-5.09,21.772-5.09,21.772
		l10.09,2.895c0,0,13.582-19.25,13.332-23s-27.488-31.251-34.244-33.083S419.342,318.941,412.486,322.58z"/>
	<ellipse fill="#E9DFCE" cx="345.75" cy="360.914" rx="12.75" ry="12"/>
	<ellipse fill="#E9DFCE" cx="496.208" cy="376.687" rx="12.751" ry="12"/>
	<polygon fill="#2D8ECD" points="412.486,368.581 399.542,419.248 504.875,408.581 483.668,357.581 	"/>
	<path fill="#E8E8E8" d="M431.217,318.135c0,0-1.342,18.278,14.992,16.946c0,0,18.109-2.309,12.443-21.272
		C448.824,315.146,431.217,318.135,431.217,318.135z"/>
	<polygon fill="#38221E" points="418.758,320.564 420.542,376.687 427.254,376.687 427.254,318.654 	"/>
	<circle fill="#E8E21B" cx="424.258" cy="378.414" r="5.5"/>
	<polygon fill="#38221E" points="464.15,312.7 466.406,366.732 472.84,366.732 472.84,311.667 464.15,312.7 	"/>
	<circle fill="#E8E21B" cx="469.623" cy="371.187" r="5.5"/>
	<path fill="none" d="M318.542,268.229"/>
	<path fill="none" d="M318.542,268.229"/>
	<path fill="#ADADAD" d="M287.371,204.146c0,0,9.171,63.185,13.226,65.112c5.002,0.684,31.445,6.872,53.9-16.572
		c-3.692-19.797-14.333-61.832-14.333-61.832s-4.332-0.141-4.396,1.858s12.059,54.837,12.059,54.837s-12.9,9.503-16.259,6.392
		s-15.887-58.881-15.887-58.881s-4.997-0.162-5.395,1.826c-0.398,1.988,12.084,59.189,12.084,59.189s-9.457,7.432-17.393,1.554
		c-2.087-7.622-12.5-56.653-12.5-56.653S288.467,201.18,287.371,204.146z"/>
	<circle cx="402.452" cy="262.347" r="5.882"/>
	<circle cx="477.785" cy="254.347" r="5.883"/>
	<path fill="#5B3C2E" d="M506.959,235.248c-38.666,3-45.75-19.667-51.084-35c-24.666,58.667-69.667,38.333-69.667,38.333
		s4.415,16.549-16.585,37.549l3.028-70.32l120.846-27.895L506.959,235.248z"/>
	<path fill="#C96755" d="M402.895,291.502c0,0,61.949-10.998,74.095-7.586c-5.088,5.744-13.525,16.225-37.07,20.362
		C439.92,304.277,412.249,309.756,402.895,291.502z"/>
	<path fill="#C96755" d="M437.541,287.731"/>
	<g opacity="0.68">
		<g>
			<path fill="#757575" d="M437.254,288.376c2.363,4.252,4.42,8.764,5.744,13.448c0.166,0.582,0.934,0.818,0.705,0.014
				c-1.354-4.784-3.461-9.414-5.875-13.756C437.465,287.429,436.887,287.715,437.254,288.376L437.254,288.376z"/>
		</g>
	</g>
	<path fill="none" stroke="#424242" stroke-miterlimit="10" d="M583.511,261.592"/>
	<path fill="none" stroke="#424242" stroke-miterlimit="10" d="M583.511,261.592"/>
</g>
</svg>
